<svg width="2088" height="512" xmlns="http://www.w3.org/2000/svg">
 <g>
  <title>background</title>
  <rect x="-1" y="-1" width="2090" height="514" id="canvas_background" fill="none"/>
 </g>

 <g>
  <title>Layer 1</title>
  <path d="m74.173,160.216c6.25,0 11.918,2.541 16.021,6.645c4.138,4.136 6.678,9.804 6.678,16.023c0,6.253 -2.541,11.92 -6.644,16.023c-4.138,4.136 -9.805,6.677 -16.056,6.677c-6.254,0 -11.922,-2.541 -16.024,-6.645c-4.106,-4.104 -6.644,-9.77 -6.644,-16.056c0,-6.253 2.538,-11.92 6.644,-16.023c4.103,-4.103 9.771,-6.644 16.025,-6.644m165.023,226.253c-0.684,-6.936 2.085,-9.867 8.5,-16.642c2.541,-2.671 5.763,-6.058 9.542,-10.683c2.77,-3.354 3.812,-4.689 3.745,-4.723c-3.288,-2.703 -22.731,3.289 -29.669,5.439l-4.201,1.335c-8.566,2.769 -21.952,7.067 -29.669,1.368c-5.667,-4.202 -6.45,-9.25 -7.265,-14.623c-0.944,-6.221 -2.018,-13.061 -17.39,-17.522c-7.493,-2.183 -12.932,-5.081 -17.849,-7.718c-7.001,-3.746 -12.897,-6.873 -22.766,-5.668c0.913,1.434 1.856,2.834 2.801,4.234l0.035,0.031l0.586,0.848l0.456,0.651l0.162,0.196l0.944,1.335l0.26,0.325l0.586,0.848l0.263,0.324l0.976,1.304l0.165,0.195l1.105,1.433l0.032,0.033l1.141,1.466l0.098,0.097l0.653,0.814l0.457,0.521l0.193,0.261l1.986,2.345l0.228,0.26l1.141,1.303l0.067,0.099l1.27,1.368l0.032,0.064l0.685,0.75l0.519,0.553l0.197,0.195l0.684,0.749l0.421,0.424l2.442,2.507l0.165,0.164l1.302,1.303l0.031,0l1.337,1.302l0.098,0.131l0.748,0.684l0.488,0.456l0.26,0.261l0.751,0.685l0.358,0.325l1.172,1.042l0.228,0.195l0.555,0.488l0.782,0.685l0.063,0.065l0.684,0.586l0.748,0.65l0.035,0.033l1.4,1.141l0.193,0.162c1.337,1.107 2.671,2.149 4.008,3.225l0.162,0.098l1.499,1.14l0,0l0.814,0.587l0.684,0.521l0.13,0.098l2.541,1.792l0.39,0.293c1.533,1.042 3.095,2.084 4.657,3.094l0.067,0.033l1.53,0.977l0.165,0.098c1.007,0.619 2.018,1.237 3.029,1.855l0.453,0.261l0.85,0.489l0.326,0.195c1.074,0.618 2.148,1.205 3.222,1.791l0.067,0.033l1.66,0.879l0.067,0.064c3.289,1.727 6.644,3.355 10.062,4.854l0.067,0c1.141,0.521 2.313,1.01 3.485,1.498l0.228,0.064c2.215,0.912 4.461,1.759 6.707,2.573l0.165,0.032l1.79,0.619l0,0.033l0.979,0.293l0.846,0.293l0.13,0.032l1.695,0.554l0.26,0.064l0.976,0.295l0.586,0.194l0.425,0.13l0.976,0.262l0.456,0.129l1.53,0.457l0.295,0.064l0.716,0.195l1.011,0.262l0.13,0.031l0.877,0.229l1.011,0.229l1.011,0.26l0.846,0.195l0.165,0.032l1.007,0.229l0.716,0.163l0.295,0.064l1.042,0.229l0.555,0.098l0.456,0.098l1.042,0.195l0.421,0.098l0.586,0.098l1.042,0.195l0.26,0.065l0.783,0.131l1.011,0.162l0.13,0.032l0.913,0.131l1.034,0.162l0,0zm-96.079,-252.862c-0.944,1.141 -1.856,2.279 -2.765,3.453l-0.685,0.847c-1.337,1.759 -2.639,3.517 -3.91,5.341l-0.649,0.912l-0.133,0.162l-0.488,0.717l-0.555,0.814l-0.063,0.098l-0.618,0.944l-0.358,0.521l-0.263,0.39l-0.586,0.913l-0.162,0.261l-0.424,0.684l-0.586,0.912l0,0.033l-0.586,0.943l-0.39,0.619l-0.196,0.326l-0.586,0.943l-0.197,0.326l-0.358,0.619l-0.551,0.944l-0.035,0.065l-0.52,0.912l-0.393,0.716l-0.13,0.261l-0.555,0.944l-0.225,0.456l-0.294,0.521l-0.52,0.978l-0.067,0.163l-0.456,0.814l-0.425,0.847l-0.095,0.162l-0.491,0.978l-0.26,0.554l-0.228,0.456l-0.488,0.977l-0.13,0.261l-0.783,1.693l-0.063,0.065l-0.72,1.597l-0.031,0.064l-0.162,0.357l-1.337,3.095l0,0c-0.716,1.726 -1.432,3.452 -2.085,5.179l-0.032,0.098l-0.684,1.791l-0.063,0.195c-0.85,2.313 -1.628,4.658 -2.38,7.035l-0.129,0.423c-0.457,1.433 -0.846,2.899 -1.271,4.331c2.442,0.521 5.05,0.912 7.882,1.206c4.496,0.456 9.444,0.651 14.884,0.651c7.068,0 17.196,0.977 25.11,4.853c6.121,2.996 10.942,7.653 12.41,14.786c0.716,3.615 -0.295,8.012 -1.467,13.125c-2.183,9.478 -5.082,22.016 4.04,31.168c7.328,7.36 11.041,5.146 15.729,2.313c2.671,-1.596 5.57,-3.355 9.283,-4.494c8.957,-2.769 15.34,-2.15 20.941,-1.597c8.075,0.782 14.199,1.368 26.251,-14.558c5.829,-7.719 8.5,-9.444 11.43,-11.334c1.53,-1.01 3.19,-2.052 5.767,-4.658c7.359,-7.425 -1.825,-27.943 -8.307,-42.436c-2.018,-4.527 -3.812,-8.533 -4.885,-11.594c-8.76,-25.697 -8.469,-26.022 2.572,-37.649c2.541,-2.671 5.766,-6.059 9.542,-10.651c2.77,-3.386 3.78,-4.721 3.745,-4.754c-3.289,-2.703 -22.731,3.322 -29.669,5.471l-4.72,1.434c-7.458,2.313 -14.333,4.43 -19.934,3.875c-8.401,-0.781 -13.287,-6.285 -11.887,-21.787l0.032,-0.391c0.491,-4.234 0.849,-8.013 1.042,-11.367l0.098,-3.615l-0.52,0.229l-0.491,0.195l-1.007,0.455l-0.228,0.099l-0.196,0.065l-1.53,0.684l-0.067,0.033l-0.976,0.455l-0.684,0.326l-1.302,0.619l-0.39,0.162l-1.271,0.619l-0.326,0.162l-0.098,0.066l-0.881,0.422l-0.814,0.424l-0.13,0.065l-0.976,0.521l-0.555,0.262l-0.421,0.228l-0.979,0.521l-0.26,0.163l-0.685,0.358l-0.944,0.521l-0.032,0.033l-0.913,0.521l-0.716,0.391l-0.228,0.164l-0.948,0.52l-0.453,0.262l-0.491,0.293l-0.944,0.586l-0.162,0.098l-0.751,0.457l-0.032,0.031l-1.825,1.107l-0.586,0.391l-0.323,0.195l-0.913,0.619l-0.326,0.195l-0.586,0.392l-0.913,0.618l-0.063,0.033l-0.814,0.553c-2.997,2.053 -5.896,4.202 -8.731,6.449l-0.846,0.684l-0.782,0.619l-0.13,0.098c-2.766,2.279 -5.472,4.625 -8.107,7.1l-0.783,0.75l-0.13,0.131l-0.653,0.617l-0.685,0.684l-0.098,0.066l-0.748,0.748l-0.782,0.782l-0.748,0.749l-0.26,0.293l-0.492,0.488l-0.779,0.782l-0.035,0.065l-0.685,0.717l-0.748,0.781l-0.747,0.814l-0.72,0.781l-0.716,0.813l-1.463,1.662l-0.716,0.847l-0.456,0.521l-0.263,0.293l-0.675,0.846zm189.485,-39.798c-0.684,1.824 -1.562,4.039 -2.41,5.732c-1.822,3.647 -4.787,7.557 -7.914,11.691c-6.707,8.893 -14.491,19.151 -10.486,26.675l0.098,0.13c4.787,8.565 18.369,9.119 32.112,9.705c18.271,0.782 36.835,1.563 42.437,19.443l0.162,0.521c0.719,3.582 -0.292,7.979 -1.464,13.092c-2.215,9.479 -5.113,22.018 4.039,31.168c7.328,7.361 11.006,5.146 15.729,2.313c2.671,-1.596 5.57,-3.321 9.283,-4.494l2.344,-0.65c-4.008,-26.348 -14.655,-50.515 -30.16,-70.772l-0.063,-0.097c-1.108,-1.466 -2.281,-2.932 -3.485,-4.365l-0.031,-0.064c-1.955,-2.377 -3.977,-4.658 -6.057,-6.938l-0.035,-0.032c-1.303,-1.368 -2.572,-2.703 -3.906,-4.007l-0.066,-0.097c-2.184,-2.149 -4.43,-4.267 -6.711,-6.319l0,0l-0.877,-0.748l-0.523,-0.456c-0.943,-0.814 -1.888,-1.628 -2.863,-2.41l-0.13,-0.13c-0.913,-0.75 -1.825,-1.498 -2.769,-2.215l-0.814,-0.651l-0.653,-0.489c-1.011,-0.781 -1.986,-1.529 -2.997,-2.246l-0.063,-0.033c-4.952,-3.648 -10.164,-6.97 -15.568,-9.998l-0.13,-0.065c-1.99,-1.11 -3.977,-2.185 -6.029,-3.194zm64.714,217.069c1.205,-2.052 2.377,-4.169 3.485,-6.285l0.453,-0.913l0.066,-0.098l0.425,-0.813l0,-0.032l0.912,-1.824l0.358,-0.717l0.095,-0.195l0.425,-0.944l0.456,-0.944l0.425,-0.912l0.421,-0.944l0.425,-0.944l0.099,-0.262l0.291,-0.715l0.425,-0.945c-0.881,-0.879 -1.986,-1.758 -3.324,-2.572c-2.376,-1.467 -5.534,-2.867 -9.704,-4.071c-7.523,-2.183 -12.928,-5.081 -17.849,-7.72c-8.37,-4.461 -15.112,-8.076 -29.048,-4.429c-5.377,1.4 -8.178,2.606 -9.09,4.3c-0.944,1.66 -0.52,4.754 0.586,9.77c1.727,7.719 1.727,16.188 0.491,24.525c-1.399,9.346 -4.299,18.596 -7.913,26.444l-0.035,0.099c-1.822,3.646 -4.787,7.556 -7.914,11.691c-6.707,8.859 -14.491,19.117 -10.486,26.641l0.098,0.131c0.357,0.65 0.783,1.237 1.204,1.791l0.979,-0.358l0.455,-0.163l0.52,-0.162l0.944,-0.358l0.327,-0.099l0.652,-0.26l0.976,-0.358l0.161,-0.064l1.762,-0.685l1.759,-0.684l0,0l0.161,-0.065l0.944,-0.423l0.652,-0.261l0.292,-0.131l0.943,-0.391l0.492,-0.228l0.455,-0.196l0.944,-0.423l0.323,-0.131l0.621,-0.293l0.912,-0.423l0.193,-0.099l0.751,-0.325l0.913,-0.456l0.031,-0.032l0.877,-0.423l0.814,-0.392l0.133,-0.065l0.909,-0.455l0.653,-0.326l0.26,-0.13l0.881,-0.456l0.52,-0.293l0.393,-0.195l0.909,-0.489l0.361,-0.194l0.551,-0.293l0.881,-0.489l0.229,-0.13l0.649,-0.391l0.881,-0.489l0.098,-0.032l0.814,-0.488l0.814,-0.457l0.063,-0.064l0.881,-0.488l0.653,-0.424l0.192,-0.131l0.881,-0.521l0.52,-0.324l0.358,-0.229l0.849,-0.521l0.391,-0.26l0.456,-0.294l0.881,-0.554l0.225,-0.162l0.621,-0.391l0.846,-0.587l0.099,-0.064l0.716,-0.489l0.813,-0.553l0.032,-0.033l0.849,-0.586l0.65,-0.488l0.164,-0.098l0.846,-0.587l0.52,-0.391l0.295,-0.228l0.814,-0.586l0.389,-0.294l0.426,-0.325l0.814,-0.619l0.259,-0.195l0.522,-0.424l0.814,-0.618l0.131,-0.099l0.648,-0.52l0.814,-0.652l0,0l0.783,-0.619l0.652,-0.553l0.13,-0.099l0.782,-0.651l0.52,-0.424l0.26,-0.227l0.751,-0.652l0.421,-0.357l0.358,-0.326l0.751,-0.651l0.291,-0.261l0.492,-0.423l0.747,-0.685l0.13,-0.13l0.617,-0.554l0.752,-0.684l0.031,-0.033l0.684,-0.65l0.653,-0.62l0.099,-0.097l0.747,-0.685l0.487,-0.521l0.229,-0.195l0.716,-0.717l0.394,-0.391l0.322,-0.326l0.72,-0.717l0.26,-0.293l0.456,-0.456l0.717,-0.717l0.129,-0.162l0.555,-0.586l0.716,-0.749l0.032,-0.033l0.652,-0.717l0.586,-0.65l0.099,-0.099l0.685,-0.749l0.487,-0.521l0.196,-0.261l0.682,-0.749l0.326,-0.392l0.326,-0.391l0.652,-0.781l0.26,-0.261l0.422,-0.489l0.652,-0.813l0.098,-0.13l0.555,-0.652l0.618,-0.78l0,0l0.653,-0.814l0.519,-0.651l0.099,-0.131l0.652,-0.813l0.618,-0.814l0.617,-0.813l0.295,-0.393l0.292,-0.422l0.621,-0.814l0.586,-0.781l0,-0.033l0.617,-0.847l0.099,-0.131l0.487,-0.717l1.727,-2.507l0.586,-0.848l0.555,-0.846l0.551,-0.88l0.264,-0.423l0.291,-0.424l0.555,-0.88l0.52,-0.879l0.555,-0.847l0.523,-0.879l0.519,-0.881l0,-0.031l0.521,-0.881zm-92.201,71.586l-0.196,-0.358l-0.162,-0.293c-6.45,-11.985 2.963,-24.427 11.136,-35.207c2.899,-3.843 5.637,-7.425 7.1,-10.356c3.293,-7.165 5.963,-15.633 7.234,-24.198c1.105,-7.49 1.137,-14.982 -0.358,-21.658c-1.534,-6.904 -1.955,-11.496 0.225,-15.405c2.151,-3.876 6.419,-6.122 14.038,-8.109c16.937,-4.429 24.914,-0.163 34.817,5.113c4.56,2.442 9.605,5.146 16.315,7.101c4.917,1.433 8.729,3.094 11.69,4.918c0.782,0.487 1.534,1.009 2.218,1.529c5.924,-16.479 9.149,-34.229 9.149,-52.761c0,-5.275 -0.26,-10.486 -0.779,-15.632l-1.011,0.293c-2.8,0.847 -5.278,2.344 -7.524,3.712c-7.717,4.625 -13.743,8.24 -25.499,-3.55c-12.249,-12.277 -8.795,-27.26 -6.156,-38.561c0.943,-4.104 1.758,-7.621 1.463,-9.576c-4.004,-12.44 -19.67,-13.092 -35.141,-13.742c-15.988,-0.686 -31.785,-1.336 -38.755,-13.81l-0.162,-0.294c-6.45,-11.984 2.963,-24.426 11.136,-35.174c2.899,-3.843 5.637,-7.457 7.1,-10.389l1.893,-4.396l0.456,-1.271c-19.12,-8.402 -40.258,-13.059 -62.47,-13.059c-18.27,0 -35.79,3.125 -52.077,8.924c0.067,2.182 0.035,4.559 -0.095,7.066l0,0.098c-0.196,3.681 -0.554,7.621 -1.042,11.79l-0.035,0.196c-0.846,9.542 1.109,12.799 4.692,13.156c4.036,0.359 10.16,-1.529 16.839,-3.582l4.72,-1.433c8.012,-2.509 30.452,-9.444 37.063,-4.007c3.776,3.094 3.812,8.143 -2.639,15.959c-4.071,4.95 -7.328,8.402 -9.9,11.105c-7.816,8.207 -8.012,8.436 -0.783,29.572c0.944,2.834 2.671,6.645 4.595,10.911c7.391,16.577 17.881,40.026 6.675,51.327c-3.19,3.225 -5.243,4.527 -7.132,5.732c-2.281,1.498 -4.365,2.834 -9.38,9.412c-14.719,19.509 -22.731,18.727 -33.351,17.718c-4.85,-0.488 -10.388,-1.01 -17.846,1.27c-2.8,0.88 -5.274,2.345 -7.524,3.714c-7.718,4.624 -13.744,8.24 -25.5,-3.518c-12.245,-12.278 -8.759,-27.261 -6.155,-38.594c0.976,-4.201 1.825,-7.85 1.432,-9.738c-0.877,-4.299 -4.036,-7.262 -8.107,-9.217c-6.549,-3.225 -15.375,-4.039 -21.594,-4.039c-5.766,-0.032 -11.009,-0.227 -15.667,-0.684c-3.225,-0.325 -6.219,-0.781 -9.02,-1.4c-2.411,10.878 -3.65,22.146 -3.65,33.708c0,27.978 7.363,54.228 20.292,76.896c14.393,-2.867 21.885,1.107 31.003,5.992c4.594,2.442 9.641,5.146 16.319,7.1c20.32,5.895 21.755,15.373 23.089,24.003c0.555,3.681 1.074,7.165 4.071,9.347c4.464,3.289 15.47,-0.26 22.507,-2.539l4.299,-1.336c8.012,-2.475 30.483,-9.412 37.063,-3.974c3.776,3.095 3.808,8.109 -2.639,15.958c-4.071,4.951 -7.328,8.403 -9.9,11.106c-4.822,5.081 -6.742,7.1 -6.026,12.181c5.082,0.488 10.195,0.749 15.403,0.749c14.623,0.001 28.791,-2.019 42.243,-5.796zm-143.952,10.292c1.857,1.172 2.376,3.646 1.204,5.504c-1.172,1.824 -3.646,2.377 -5.503,1.204c-28.009,-17.848 -51.232,-42.566 -67.256,-71.748c-15.47,-28.172 -24.261,-60.545 -24.261,-94.938c0,-2.214 1.79,-4.005 4.004,-4.005c2.215,0 4.008,1.791 4.008,4.005c0,33.024 8.434,64.063 23.25,91.062c15.407,28.043 37.685,51.784 64.554,68.916zm101.677,-349.461c-2.183,0 -4.004,-1.791 -4.004,-4.006s1.821,-4.006 4.004,-4.006c54.552,0 103.927,22.114 139.686,57.842c35.73,35.728 57.844,85.135 57.844,139.653c0,2.216 -1.794,4.007 -4.008,4.007c-2.215,0 -4.005,-1.791 -4.005,-4.007c0,-52.305 -21.201,-99.691 -55.495,-133.986c-34.296,-34.295 -81.684,-55.497 -134.022,-55.497zm-167.596,94.905c-1.077,1.889 -3.52,2.572 -5.439,1.497c-1.923,-1.107 -2.573,-3.549 -1.499,-5.438c11.658,-20.616 26.869,-38.984 44.781,-54.193c17.783,-15.145 38.268,-27.228 60.609,-35.435c2.084,-0.75 4.366,0.293 5.148,2.377c0.748,2.085 -0.326,4.365 -2.379,5.113c-21.46,7.914 -41.135,19.509 -58.198,34.034c-17.228,14.624 -31.821,32.243 -43.023,52.045zm-53.152,314.807c-2.214,0 -4.008,-1.824 -4.008,-4.006c0,-2.215 1.793,-4.006 4.008,-4.006l306.566,0c2.214,0 4.008,1.791 4.008,4.006c0,2.182 -1.794,4.006 -4.008,4.006l-306.566,0zm179.515,23.71c-2.214,0 -4.004,-1.824 -4.004,-4.006c0,-2.215 1.79,-4.006 4.004,-4.006l212.153,0c2.215,0 4.004,1.791 4.004,4.006c0,2.182 -1.789,4.006 -4.004,4.006l-212.153,0zm233.876,0c-2.214,0 -4.008,-1.824 -4.008,-4.006c0,-2.215 1.794,-4.006 4.008,-4.006l26.542,0c2.184,0 3.974,1.791 3.974,4.006c0,2.182 -1.79,4.006 -3.974,4.006l-26.542,0zm-425.474,-0.717c-2.214,0 -4.008,-1.824 -4.008,-4.006c0,-2.215 1.793,-4.006 4.008,-4.006l100.537,0c2.183,0 3.976,1.791 3.976,4.006c0,2.182 -1.793,4.006 -3.976,4.006l-100.537,0zm438.958,-187.659c-2.639,-2.638 -6.32,-4.299 -10.392,-4.299c-4.036,0 -7.717,1.628 -10.356,4.299c-2.671,2.638 -4.299,6.317 -4.299,10.39c0,4.038 1.628,7.719 4.299,10.355c2.64,2.672 6.32,4.3 10.356,4.3c4.071,0 7.753,-1.628 10.392,-4.267c2.671,-2.67 4.3,-6.351 4.3,-10.389c0,-3.975 -1.565,-7.557 -4.106,-10.227l-0.194,-0.162z" clip-rule="evenodd" fill-rule="evenodd" id="svg_2"/>
  <text fill="#000000" stroke-width="0" x="1074.427856" y="328.84453" id="svg_3" font-size="24" font-family="Helvetica, Arial, sans-serif" text-anchor="start" xml:space="preserve" transform="matrix(39.11682891845703,0,0,1,-41462.17623150349,0) " stroke="#000"/>
  <text fill="#000000" stroke="#000" stroke-width="6" stroke-opacity="null" fill-opacity="null" x="501" y="282.289063" id="svg_5" font-size="147" font-family="Arvo, sans-serif" text-anchor="start" xml:space="preserve">CELESTE BANCHERO</text>
  <text font-style="normal" font-weight="bold" xml:space="preserve" text-anchor="start" font-family="Arvo, sans-serif" font-size="52" id="svg_1" y="378.780081" x="819.857868" stroke-width="0" stroke="#000" fill="#686a6d">COMERCIO EXTERIOR + NEGOCIOS</text>
 </g>
</svg>